# xmcd
#
# Track frame offsets:
#	150
#	11849
#	29508
#	51120
#	66295
#	78111
#	98288
#	113494
#	131898
#	144704
#	161323
#	170817
#	185145
#
# Disc length: 2684 seconds
#
# Revision: 1
# Processed by: cddbd v1.5.1PL2 Copyright (c) Steve Scherf et al.
# Submitted via: audiograbber 1.83.01
#
DISCID=ad0a7a0d
DTITLE=Drive - Cekani na zazrak
DYEAR=2006
DGENRE=Bluegrass
TTITLE0=Dubovy listi
TTITLE1=Mozna
TTITLE2=Cekani na zazrak
TTITLE3=Martinovka (Pochod frkulinu)
TTITLE4=Do pirek vetrnych
TTITLE5=Krev divokou ma
TTITLE6=Vsechno si moc beru
TTITLE7=Vezeni s klicem uvnitr
TTITLE8=Vyrezal jsi vroubek
TTITLE9=Plevy
TTITLE10=Trnum nepovolim
TTITLE11=Tequillina pycha
TTITLE12=Hvezdy nad hlavou (bonus)
EXTD=Prvni CD Brnenske kapely Drive.
EXTT0=
EXTT1=
EXTT2=
EXTT3=
EXTT4=
EXTT5=
EXTT6=
EXTT7=
EXTT8=
EXTT9=
EXTT10=
EXTT11=
EXTT12=
PLAYORDER=
